<svg width="205" height="101" viewBox="0 0 205 101" fill="none" xmlns="http://www.w3.org/2000/svg">
<g id="toggle">
<g clip-path="url(#clip0_44_258)">
<rect width="205" height="101" rx="20" fill="#3F3F3F"/>
<rect id="pane" y="-3" width="102" height="104" fill="#00FFA3"/>
<g id="day">
<path id="Vector" d="M65.8837 52.0009C65.8837 60.2209 59.2199 66.8846 50.9999 66.8846C42.7799 66.8846 36.1162 60.2209 36.1162 52.0009C36.1162 43.7809 42.7799 37.1172 50.9999 37.1172C59.2199 37.1172 65.8837 43.7809 65.8837 52.0009Z" fill="#1C274C" stroke="black" stroke-width="0.000213333"/>
<path id="Vector_2" fill-rule="evenodd" clip-rule="evenodd" d="M51 20C52.233 20 53.2326 20.9996 53.2326 22.2326V28.186C53.2326 29.419 52.233 30.4186 51 30.4186C49.767 30.4186 48.7674 29.419 48.7674 28.186V22.2326C48.7674 20.9996 49.767 20 51 20ZM26.1997 27.3409C27.0317 26.4309 28.4439 26.3677 29.3539 27.1997L35.9682 33.2472C36.8782 34.0792 36.9414 35.4914 36.1094 36.4014C35.2774 37.3113 33.8653 37.3746 32.9553 36.5426L26.3409 30.4951C25.4309 29.6631 25.3677 28.2509 26.1997 27.3409ZM75.8004 27.3409C76.6324 28.2509 76.569 29.6631 75.659 30.4951L69.0447 36.5426C68.1347 37.3746 66.7226 37.3113 65.8906 36.4014C65.0586 35.4914 65.1217 34.0792 66.0317 33.2472L72.6463 27.1997C73.5563 26.3677 74.9681 26.4309 75.8004 27.3409ZM19 52C19 50.767 19.9996 49.7674 21.2326 49.7674H27.186C28.419 49.7674 29.4186 50.767 29.4186 52C29.4186 53.233 28.419 54.2326 27.186 54.2326H21.2326C19.9996 54.2326 19 53.233 19 52ZM72.5814 52C72.5814 50.767 73.581 49.7674 74.814 49.7674H80.7674C82.0004 49.7674 83 50.767 83 52C83 53.233 82.0004 54.2326 80.7674 54.2326H74.814C73.581 54.2326 72.5814 53.233 72.5814 52ZM65.9596 66.9587C66.8315 66.0868 68.2452 66.0868 69.1171 66.9587L75.7314 73.574C76.6033 74.4458 76.603 75.8595 75.7311 76.7314C74.8592 77.6033 73.4455 77.603 72.574 76.7311L65.9596 70.1159C65.0877 69.244 65.0877 67.8306 65.9596 66.9587ZM36.0409 66.959C36.9127 67.8309 36.9127 69.2446 36.0409 70.1165L29.4259 76.7314C28.554 77.6033 27.1404 77.6033 26.2686 76.7314C25.3967 75.8595 25.3967 74.4458 26.2686 73.5743L32.8836 66.959C33.7554 66.0871 35.169 66.0871 36.0409 66.959ZM51 73.5814C52.233 73.5814 53.2326 74.581 53.2326 75.814V81.7674C53.2326 83.0004 52.233 84 51 84C49.767 84 48.7674 83.0004 48.7674 81.7674V75.814C48.7674 74.581 49.767 73.5814 51 73.5814Z" fill="#1C274C" stroke="black" stroke-width="0.000213333"/>
</g>
<path id="night" d="M159 83C176.673 83 191 68.673 191 51C191 49.5194 188.781 49.2746 188.015 50.5418C184.372 56.5699 177.757 60.6 170.2 60.6C158.712 60.6 149.4 51.2877 149.4 39.8C149.4 32.243 153.43 25.6274 159.458 21.9848C160.725 21.2191 160.481 19 159 19C141.327 19 127 33.3269 127 51C127 68.673 141.327 83 159 83Z" fill="#C7C7C7"/>
</g>
</g>
<defs>
<clipPath id="clip0_44_258">
<rect width="205" height="101" rx="20" fill="white"/>
</clipPath>
</defs>
</svg>
